<svg height="512" viewBox="0 0 59 60" width="512" xmlns="http://www.w3.org/2000/svg"><g id="022---Natural-Soap"><path id="Shape" d="m6.169 22.824-6 30c-.35220733 1.7621209.10392317 3.5893358 1.24296398 4.9791942 1.13904082 1.3898583 2.8410609 2.1960201 4.63803602 2.1968058h23.95c1.7968-.001085 3.4985391-.8073743 4.6373532-2.1971922 1.138814-1.389818 1.59482-3.2168585 1.2426468-4.9788078l-1.818-9.1c1.2394144.3653437 2.5569942.3719316 3.8.019 1.642802 2.8636796 5.1713757 4.0409927 8.2045715 2.7374658s4.6074317-4.6737909 3.6603829-7.836473-4.1145249-5.113065-7.3649544-4.5349928c-.8911452-1.966624-2.6414462-3.4107797-4.7415273-3.9121866-2.1000812-.5014068-4.3140054-.0037333-5.9974727 1.3481866l-1.743-8.722c-.4902114-2.4173312-2.4047617-4.2914667-4.832-4.73v-3.093c0-1.6568542-1.3431458-3-3-3v-2c-.002145-.71132678-.3832487-1.36758742-1-1.722v-5.278c0-1.65685425-1.3431458-3-3-3h-8.048c-1.65685425 0-3 1.34314575-3 3s1.34314575 3 3 3h5.048v2.278c-.6167513.35441258-.997855 1.01067322-1 1.722v2c-1.6568542 0-3 1.3431458-3 3v3.088c-2.4502303.4158433-4.39047413 2.29922-4.879 4.736zm41.831 17.676c-.0052552 1.9945761-1.322867 3.747703-3.2373221 4.3073662-1.9144551.5596633-3.9688938-.2076934-5.0476779-1.8853662 2.3352453-1.4555218 3.5940794-4.1499441 3.212-6.875 1.2818231-.1685207 2.5740559.2239229 3.5456852 1.0768039s1.5282626 2.0833432 1.5273148 3.3761961zm-7-3.5c.0018547 2.1439644-1.3633579 4.0504885-3.3936696 4.739271s-4.2737758.0065007-5.5768424-1.6960281c-1.3030667-1.7025287-1.3756738-4.0463222-.180488-5.8262429 1.2306735-1.8173999 3.5016943-2.6211666 5.6016123-1.98254 2.099918.6386265 3.5389203 2.5706847 3.5493877 4.76554zm-31-33c-.55228475 0-1-.44771525-1-1s.44771525-1 1-1h8.048c.5522847 0 1 .44771525 1 1v5h-2v-3c0-.55228475-.4477153-1-1-1zm6.048 6h4v2h-4zm-2 4h8c.5522847 0 1 .4477153 1 1v3h-10v-3c0-.5522847.4477153-1 1-1zm-2 6h11.952c1.9040846.0058998 3.5416084 1.3496805 3.919 3.216l2.053 10.243c-1.8101715 3.0618743-1.0220074 6.9957959 1.828 9.124l2.124 10.634c.2345778 1.17517-.070083 2.3936046-.8301592 3.3200685-.7600762.926464-1.8954873 1.4633463-3.0938408 1.4629315h-23.95c-1.19786666-.0007233-2.33235942-.5382495-3.09156878-1.4647948-.75920937-.9265453-1.06321335-2.1445723-.82843122-3.3192052l6-30c.37350056-1.8686572 2.013382-3.2143727 3.919-3.216z"/><path id="Shape" d="m17.048 51.968v3.032c0 .5522847.4477153 1 1 1s1-.4477153 1-1v-3.032c5.017-.323 7-3.205 7-9.968 0-7.109-4.031-17-8-17s-8 9.891-8 17c0 6.763 1.983 9.645 7 9.968zm1-24.968c1.634 0 6 7.294 6 15 0 6.215-1.621 7.747-5 7.966v-3.552l2.707-2.707c.2599566-.2510745.3642126-.6228779.2726972-.9725073-.0915155-.3496295-.3645604-.6226744-.7141899-.7141899-.3496294-.0915154-.7214328.0127406-.9725073.2726972l-1.293 1.293v-3.172l2.707-2.707c.2599566-.2510745.3642126-.6228779.2726972-.9725073-.0915155-.3496295-.3645604-.6226744-.7141899-.7141899-.3496294-.0915154-.7214328.0127406-.9725073.2726972l-1.293 1.293v-4.586c0-.5522847-.4477153-1-1-1s-1 .4477153-1 1v4.586l-1.293-1.293c-.3923789-.3789722-1.0160848-.3735524-1.4018186.0121814s-.3911536 1.0094397-.0121814 1.4018186l2.707 2.707v3.172l-1.293-1.293c-.3923789-.3789722-1.0160848-.3735524-1.4018186.0121814s-.3911536 1.0094397-.0121814 1.4018186l2.707 2.707v3.552c-3.38-.219-5-1.751-5-7.966 0-7.706 4.366-15 6-15z"/><path id="Shape" d="m59 35.5c0-2.4852814-2.0147186-4.5-4.5-4.5s-4.5 2.0147186-4.5 4.5 2.0147186 4.5 4.5 4.5c2.4841391-.0027556 4.4972444-2.0158609 4.5-4.5zm-4.5 2.5c-1.3807119 0-2.5-1.1192881-2.5-2.5s1.1192881-2.5 2.5-2.5 2.5 1.1192881 2.5 2.5-1.1192881 2.5-2.5 2.5z"/><path id="Shape" d="m51 28.5c0-1.9329966-1.5670034-3.5-3.5-3.5s-3.5 1.5670034-3.5 3.5 1.5670034 3.5 3.5 3.5 3.5-1.5670034 3.5-3.5zm-5 0c0-.8284271.6715729-1.5 1.5-1.5s1.5.6715729 1.5 1.5-.6715729 1.5-1.5 1.5-1.5-.6715729-1.5-1.5z"/><path id="Shape" d="m45 52c0 2.7614237 2.2385763 5 5 5s5-2.2385763 5-5-2.2385763-5-5-5c-2.7600532.0033061-4.9966939 2.2399468-5 5zm5-3c1.6568542 0 3 1.3431458 3 3s-1.3431458 3-3 3-3-1.3431458-3-3 1.3431458-3 3-3z"/><path id="Shape" d="m37 51c0 1.6568542 1.3431458 3 3 3s3-1.3431458 3-3-1.3431458-3-3-3-3 1.3431458-3 3zm4 0c0 .5522847-.4477153 1-1 1s-1-.4477153-1-1 .4477153-1 1-1 1 .4477153 1 1z"/><path id="Shape" d="m34 39c.5522847 0 1-.4477153 1-1-.0342778-.5412774.1662515-1.0710921.5503331-1.4540249s.9144946-.5818741 1.4556669-.5459751c.5522847-.0016569.9986568-.4507153.9969999-1.003-.0016568-.5522847-.4507152-.9986568-1.0029999-.997-1.0702387-.0315929-2.1061138.3796808-2.8632165 1.1367835s-1.1683764 1.7929778-1.1367835 2.8632165c0 .5522847.4477153 1 1 1z"/></g></svg>