<svg height="512" viewBox="0 0 60 60" width="512" xmlns="http://www.w3.org/2000/svg"><g id="038---Natural-Pippette-Drops"><path id="Shape" d="m4.38 34.759.4 1.989c.13312742.7425306.71007035 1.326233 1.451 1.468.77935634.2112044 1.57467027.3583609 2.378.44.49041491.0013584.96128073-.1921678 1.309-.538l17.8-17.805.5.5c.5067343.5092982 1.1955542.7956355 1.914.7956355s1.4072657-.2863373 1.914-.7956355l6.243-6.242c.8308096-.825706 1.2964553-1.9496661 1.293-3.121v-.793c-.001572-.6405486.2529804-1.25514692.707-1.707l1.414-1.414c1.2543214-1.26458676 1.6274928-3.15827646.946717-4.80419447-.6807758-1.645918-2.2825883-2.72272537-4.063717-2.73180553-2.146 0-3.079 1.251-4.535 2.707-.4520972.45426627-1.067105.70883919-1.708.707h-.793c-1.1712898-.003232-2.2951672.46237952-3.121 1.293l-6.242 6.243c-1.0558623 1.0575742-1.0558623 2.7704258 0 3.828l.5.5-17.8 17.8c-.43916097.4404801-.62937689 1.0711566-.507 1.681zm19.22-22.395 2.915-2.914 3.517 3.517c.2510745.2599566.6228779.3642126.9725073.2726972.3496295-.0915155.6226744-.3645604.7141899-.7141899.0915154-.3496294-.0127406-.7214328-.2726972-.9725073l-3.517-3.517 1.914-1.914c.4516882-.45438643 1.066307-.70930742 1.707-.708h.793c2.145 0 3.08-1.251 4.536-2.707.9552781-.91200336 2.4587219-.91200336 3.414 0 .9401482.9442165.9401482 2.4707835 0 3.415-1.466 1.465-2.707 2.394-2.707 4.535v.793c.0019743.6403345-.2526603 1.254771-.707 1.706l-1.915 1.915-1.1-1.1c-.2510745-.2599566-.6228779-.3642126-.9725073-.2726972-.3496295.0915155-.6226744.3645604-.7141899.7141899-.0915154.3496294.0127406.7214328.2726972.9725073l1.1 1.1-2.915 2.915c-.2793845.2682009-.7206155.2682009-1 0l-6.035-6.036c-.1326344-.1325944-.207151-.3124549-.207151-.5s.0745166-.3674056.207151-.5zm2.708 6.536-7.5 7.5-2.208-2.211 7.5-7.5zm-11.118 6.7 2.21 2.211-8.838 8.834-1.836-.37-.371-1.837z"/><path id="Shape" d="m8 60c4.3362001.0730486 7.9140884-3.3760357 8-7.712 0-2.984-3.679-8.752-5.647-11.178-.57919131-.702849-1.44225341-1.1099817-2.353-1.1099817s-1.77380869.4071327-2.353 1.1099817c-1.968 2.426-5.647 8.19-5.647 11.178.08591163 4.3359643 3.66379993 7.7850486 8 7.712zm-.8-17.629c.19912442-.2353085.49174582-.3710185.8-.3710185s.60087558.13571.8.3710185c2.12 2.611 5.2 7.773 5.2 9.917-.0845578 3.2319478-2.7678024 5.7863966-6 5.712-3.23219763.0743966-5.9154422-2.4800522-6-5.712 0-2.144 3.08-7.306 5.2-9.917z"/><path id="Shape" d="m3.964 54c.55666938 1.112312 1.60566212 1.8966472 2.83 2.116.53599234.1336529 1.07884704-.1925077 1.21249995-.7285.1336529-.5359923-.19250763-1.0788471-.72849995-1.2125-.62723242-.0857253-1.17934382-.4572464-1.495-1.006-.23634907-.7989804-.15650924-1.6582431.223-2.4.246319-.494571.04507099-1.095181-.4495-1.3415s-1.095181-.045071-1.3415.4495c-.64934377 1.2807283-.74018785 2.7729601-.251 4.123z"/><path id="Shape" d="m55.63 27c-1.3205152-.0374271-2.370328-1.1209616-2.366-2.442.4663236-.3828681.7364281-.9546382.736-1.558v-4c.0167152-1.0857474-.8483029-1.9802852-1.934-2h-12.132c-1.0856971.0197148-1.9507152.9142526-1.934 2v4c-.0004281.6033618.2696764 1.1751319.736 1.558.004328 1.3210384-1.0454848 2.4045729-2.366 2.442-2.4480767.0389231-4.4028369 2.0518341-4.37 4.5v24.5c-.0278207 2.1773599 1.7117194 3.9665499 3.889 4h20.222c2.1772806-.0334501 3.9168207-1.8226401 3.889-4v-24.5c.0328369-2.4481659-1.9219233-4.4610769-4.37-4.5zm-21.63 7h24v18h-24zm17.994-15.013s.006-.005.006.013l.066 4h-12.066l-.066-4.013zm-15.624 10.013c2.2560312-.031293 4.1275938-1.7542506 4.345-4h10.57c.2174062 2.2457494 2.0889688 3.968707 4.345 4 1.3435673.0386895 2.403045 1.1562821 2.37 2.5v.5h-24v-.5c-.033045-1.3437179 1.0264327-2.4613105 2.37-2.5zm19.741 29h-20.222c-1.0730135-.0326673-1.917588-.9268701-1.889-2v-2h24v2c.028588 1.0731299-.8159865 1.9673327-1.889 2z"/><path id="Shape" d="m54.668 36.843c-.0438457-.2768075-.2018373-.5225124-.4354934-.6772692s-.5215305-.204361-.7935066-.1367308c-.213.054-4.821 1.219-7.378 3.226-2.584-1.949-6.933-3.08-7.519-3.225-.2727128-.0679211-.561419-.0179488-.795437.1376827s-.3917439.4025546-.434563.6803173c-.11.72-1.026 7.119.861 9.935 1.919 2.86 5.636 4.183 8.316 2.417.1-.062.173-.147.263-.216.0315816-.0145542.0622991-.0309146.092-.049.031-.025.047-.061.075-.088.9092362-.7704235 1.5173002-1.837103 1.717-3.012l2.081-2.135c.3865993-.3959882.3789882-1.0304007-.017-1.417s-1.0304007-.3789882-1.417.017l-.754.775c-.2120542-.8506336-.5689301-1.6584245-1.055-2.388 1.6593575-1.0669058 3.4681364-1.8811428 5.367-2.416.263 2.434.285 5.831-.621 7.2-.534893.8253124-1.290974 1.4836781-2.182 1.9-.4310299.1925982-.6686462.6604069-.5699412 1.1220758.0987049.4616689.5068389.791416.9789412.7909242 1.4432845-.449301 2.6695376-1.4162708 3.443-2.715 1.824-2.755.89-9.021.778-9.726zm-14.834 8.826c-1.026-1.532-.907-5.2-.684-7.4 2.425.731 5.693 2.084 6.64 3.494 1.0512493 1.3860694 1.2388673 3.2437194.486 4.812l-2.488-3.193c-.3396551-.4357527-.9682473-.5136551-1.404-.174s-.5136551.9682473-.174 1.404l2.52 3.234c-1.599.537-3.658-.334-4.896-2.177z"/></g></svg>