<svg height="512" viewBox="0 0 60 60" width="512" xmlns="http://www.w3.org/2000/svg"><g id="010---Citrus-Face-Rub"><path id="Shape" d="m7.073 35.737c.332 4.949 2.812 10.13 7.927 14.436v6.807c0 1.6568542 1.3431458 3 3 3h14c1.5629757-.0044554 2.8595478-1.2104372 2.977-2.769 5.0924906 3.4789886 11.7316681 3.7195611 17.0625972.6182683 5.330929-3.1012928 8.4034018-8.9916634 7.8962138-15.1381731s-4.5036334-11.4535784-10.270811-13.6390952c.743-2.711.5-6.968-2.465-7.953-1.0109325-.332831-2.1159758-.2170853-3.036.318.053-1.834.062-3.5-.095-6.962-.1094692-5.08290886-3.0271256-9.68639061-7.577-11.955-2.7399301-1.42160952-5.7426244-2.26537275-8.822-2.479h-5.383c-.157.006-15.731.837-16.356 14.434-.157 3.454-.148 5.128-.095 6.963-.92010573-.5348356-2.02503955-.6505698-3.036-.318-1.97.653-2.906 2.624-2.785 5.86.174 4.34 3.072 7.204 7.058 8.777zm25.533-32.719c.8059599.26210423 1.5931175.57883828 2.356.948-.691 4.451-6.662 6.36-11.114 7.046-8.79 1.352-13.648 7.548-15.965 11.659-.1-2.2-.095-3.561-.058-5.151 2.9536488-5.2747928 8.1442286-8.92159086 14.108-9.912 3.743-.576 8.085-1.842 10.673-4.59zm9.571 14.549c.03 1.348.039 2.431-.03 4.283-3.399265-4.6441779-8.1840386-8.0904333-13.666-9.843 1.5020342-.4479189 2.937173-1.0953626 4.267-1.925 3.7133208 1.6773572 6.9529328 4.2490504 9.429 7.485zm-28.752 28.249c-2.2020213-2.5422161-3.66107373-5.6419673-4.217-8.959-.18201535-1.1500026-.22499091-2.3177292-.128-3.478-.07451674-2.3088735-.35394783-4.6065668-.835-6.866.937-2.4 5.26-11.815 15.794-13.5 7.4582878 1.2194507 14.000992 5.6617296 17.886 12.144-.039.414-.185 1.572-.449 3.062-5.0745325.7994077-9.4539895 3.992703-11.7667449 8.5797604-2.3127554 4.5870573-2.2760036 10.0069677.0987449 14.5622396-1.0175818.5485453-2.0809167 1.0076062-3.178 1.372-1.0580193.3549759-2.2029807.3549759-3.261 0-1.4820424-.4790178-2.8983648-1.1414911-4.216-1.972-2.1368896-1.3647178-4.0660361-3.0301559-5.728-4.945zm19.575 11.164c0 .5522847-.4477153 1-1 1h-14c-.5522847 0-1-.4477153-1-1v-5.262c1.7448871 1.2662104 3.6791363 2.248354 5.731 2.91 1.4726081.4965113 3.0673919.4965113 4.54 0 1.2337551-.4102008 2.4282117-.9302865 3.569-1.554.6301161.9148869 1.3540414 1.7614772 2.16 2.526zm23.931-7.626c-2.9588947 7.1433863-11.148391 10.5356119-18.2917979 7.576767-7.143407-2.9588449-10.5356896-11.1483176-7.5768944-18.2917451 2.9587951-7.1434276 11.1482441-10.5357673 18.2916923-7.5770219 7.1364165 2.9659721 10.5258125 11.148476 7.577 18.292zm-10.356-26.354c1.669.553 1.612 3.767 1.164 5.46-1.3740058-.3340813-2.7865493-.4827346-4.2-.442.225-1.358.362-2.478.394-2.868.1-1.037.049-.625.145-.836.3834125-1.0036553 1.4526523-1.5663229 2.497-1.314zm-4.526-8.67c-2.1582994-2.307508-4.7105276-4.2119436-7.537-5.624 1.077004-1.00247255 1.8609982-2.27905572 2.268-3.693 3.1866897 2.04496817 5.1584573 5.5312059 5.269 9.316zm-19.719-12.31c4.815 0 5.5-.133 7.967.383-2.36 1.882-5.667 2.767-8.668 3.229-5.4298565.83367638-10.3211827 3.75032154-13.636 8.131 1.086-11.005 13.826-11.719 14.337-11.743zm-18.909 20.98c1.04487612-.2527341 2.11500445.3092973 2.5 1.313.02253539.0351125.0476019.0685345.075.1.454 4.835 1.171 6.029 1.078 9.166-2.883-1.347-4.93-3.471-5.064-6.7-.085-2.234.39-3.541 1.411-3.879z"/><path id="Shape" d="m39.449 32.9c-9.749 3.753-10.049 18.04-.044 22.183 4.4778219 1.8389297 9.6219023.810352 13.0483005-2.6090554s4.4654799-8.5613762 2.6356995-13.0429446v-.023l-.012-.019c-2.5272989-6.1038121-9.5205644-9.0075298-15.628-6.489zm7.433 1.521-2.33 5.625c-.3681376-.0525016-.7418624-.0525016-1.11 0l-2.325-5.621c1.8788801-.5714562 3.8849345-.573544 5.765-.006zm6.689 12.463-5.625-2.329c.0525151-.3681366.0525151-.7418634 0-1.11l5.624-2.326c.568526 1.8788854.5688739 3.8839174.001 5.763zm-10.34-1.035c-.7545702-.3104692-1.2448804-1.0481908-1.2389424-1.8641148s.5069334-1.5464313 1.2659424-1.8458852c1.0233836-.4183557 2.1921443.0721164 2.6105 1.0955s-.0721164 2.1921443-1.0955 2.6105h-.017l-.01.007c-.48624.196426-1.0300671.1946312-1.515-.005zm-8.806 1.037c-.5748757-1.8800724-.5769644-3.8887361-.006-5.77l5.626 2.33c-.0515287.3648563-.0515287.7351437 0 1.1-1.406.584-5.089 2.117-5.62 2.338zm4.854-11.673 2.315 5.6c-.296814.2236509-.5607276.4879012-.784.785l-5.6-2.32c.9252595-1.7275117 2.3410336-3.1425899 4.069-4.067zm-4.087 13.52c7.348-3.055-2.492 1.017 5.618-2.333.2234269.2979252.4880748.5625731.786.786l-2.33 5.625c-1.732434-.926062-3.1504886-2.346205-4.074-4.08zm5.922 4.841 2.33-5.625c.3630599.0727323.7369401.0727323 1.1 0l2.335 5.62c-1.8788181.5728827-3.8855867.573927-5.765.003zm7.615-.77-2.329-5.619c.2978241-.222822.562178-.4871759.785-.785l5.626 2.33c-.9268374 1.7315314-2.3477474 3.1482643-4.082 4.07zm4.071-13.535-5.62 2.325c-.2226592-.2960029-.4851399-.5598297-.78-.784l2.33-5.625c1.7300776.9297094 3.1462369 2.35074 4.07 4.084z"/></g></svg>