<svg height="512" viewBox="0 0 60 56" width="512" xmlns="http://www.w3.org/2000/svg"><g id="048---False-Eyelashes" transform="translate(0 -1)"><path id="Shape" d="m50.9 2.558c-.1166769-.23946625-.324074-.42248415-.576195-.50846435-.252121-.08598021-.5281266-.06781595-.766805.05046435-.138.067-3.41 1.629-5.85-.811-.2865085-.28642782-.7175244-.37169003-1.0915074-.21591856s-.6170295.52179431-.6154926.92691856c0 4.411-5.383 8-12 8s-12-3.589-12-8c-.0000863-.4043959-.2437275-.76893405-.6173454-.92367798-.373618-.15474393-.8036603-.06922994-1.0896546.21667798-2.44 2.44-5.712.878-5.846.812-.3197527-.15969772-.7004141-.13667846-.99859274.06038664-.29817863.19706511-.46857407.53823718-.447.895.02157407.35676283.23184004.67491564.55159274.83461336 2.1182383 1.00933644 4.5832254.98720578 6.683-.06.1769119.65784582.4380736 1.29007881.777 1.881-.8881181 1.759867-2.8447222 2.7070338-4.776 2.312-.3469049-.08556511-.7131067.02044102-.9606607.27808692-.247554.25764589-.3388509.627789-.2395.971s.3742558.60734797.7211607.69291308c2.4845168.559142 5.0613165-.43251149 6.53-2.513.5106762.55375391 1.0743677 1.05615276 1.683 1.5-.809 2.876-2.749 3.031-2.983 3.038-.5536655.0033137-.9998137.4548345-.9965 1.0085s.4548345.9998137 1.0085.9965c.145 0 3.361-.048 4.727-3.945 1.0352016.5402564 2.1254601.9677101 3.252 1.275-.217 3.089-3.37 4.746-3.428 4.776-.4940187.2485281-.6930281.8504813-.4445 1.3445s.8504813.6930281 1.3445.4445c.175-.088 4.067-2.085 4.509-6.143.6756853.1081489 1.3566488.180251 2.04.216v6.032c0 .5522847.4477153 1 1 1s1-.4477153 1-1v-6.032c.6846891-.0356074 1.3669916-.1077098 2.044-.216.442 4.058 4.334 6.055 4.509 6.143.4937426.2485281 1.0954719.0497426 1.344-.444s.0497426-1.0954719-.444-1.344c-.034-.017-3.211-1.676-3.429-4.777 1.1265399-.3072899 2.2167984-.7347436 3.252-1.275 1.363 3.897 4.579 3.945 4.724 3.945.5453067-.0005356.9881562-.4407066.992-.986.0040344-.5477348-.4304771-.9982405-.978-1.014-.225-.007-2.174-.153-2.985-3.038.6085274-.44359787 1.1719105-.94602038 1.682-1.5 1.4707424 2.0784344 4.0463896 3.0694927 6.531 2.513.3539356-.0796449.636976-.34473226.7396106-.69269754s.0087636-.72422508-.2452935-.9832013-.6284478-.36004469-.9783171-.26410116c-1.9327542.41357296-3.8991686-.54016482-4.771-2.314.3389264-.59092119.6000881-1.22315418.777-1.881 2.0994502 1.04855512 4.5650618 1.07069139 6.683.06.2383263-.11757692.4200499-.32518276.5050441-.5769758.0849942-.25179305.0662679-.52706194-.0520441-.7650242z"/><path id="Shape" d="m50.447 19.9c.4901762-.2481223.6883867-.8452206.4438982-1.3372194s-.8401039-.6946219-1.3338982-.4537806c-.138.066-3.41 1.629-5.85-.811-.2853496-.2852743-.7141864-.3711108-1.0873545-.2176463-.3731681.1534646-.6175473.5161597-.6196455.9196463 0 4.411-5.383 8-12 8s-12-3.589-12-8c-.0000863-.4043959-.2437275-.7689341-.6173454-.923678-.373618-.1547439-.8036603-.0692299-1.0896546.216678-2.44 2.439-5.712.878-5.846.812-.49429485-.2468713-1.09512872-.0462949-1.342.448s-.04629485 1.0951287.448 1.342c2.1183381 1.0088856 4.5831175.9867568 6.683-.06.1769119.6578458.4380736 1.2900788.777 1.881-.8876071 1.7603864-2.8446318 2.7077568-4.776 2.312-.5362685-.1322722-1.0782278.1952315-1.2105.7315s.1952315 1.0782278.7315 1.2105c2.4845168.559142 5.0613165-.4325115 6.53-2.513.5106762.5537539 1.0743677 1.0561528 1.683 1.5-.809 2.876-2.749 3.031-2.983 3.038-.3581588.0021436-.6879675.1951998-.8651905.5064462-.1772229.3112463-.1749358.6933972.006 1.0025.1809358.3091027.5130317.4981974.8711905.4960538.145 0 3.361-.048 4.727-3.945 1.0352016.5402564 2.1254601.9677101 3.252 1.275-.217 3.089-3.37 4.746-3.428 4.776-.4940187.2485282-.6930281.8504813-.4444999 1.3445.2485281.4940187.8504812.6930281 1.3444999.4445.175-.088 4.067-2.085 4.509-6.143.6756853.1081489 1.3566488.180251 2.04.216v6.032c0 .5522847.4477153 1 1 1s1-.4477153 1-1v-6.032c.6846891-.0356074 1.3669916-.1077098 2.044-.216.442 4.058 4.334 6.055 4.509 6.143.4937426.2485281 1.0954718.0497425 1.344-.444.2485281-.4937426.0497425-1.0954718-.444-1.344-.034-.017-3.211-1.676-3.429-4.777 1.1265399-.3072899 2.2167984-.7347436 3.252-1.275 1.363 3.897 4.579 3.945 4.724 3.945.5453067-.0005356.9881562-.4407066.992-.986.0040344-.5477348-.4304771-.9982405-.978-1.014-.225-.007-2.174-.153-2.985-3.038.6085274-.4435979 1.1719105-.9460204 1.682-1.5 1.4707424 2.0784344 4.0463896 3.0694927 6.531 2.513.5239217-.1436734.8373021-.6793531.7057969-1.2064607-.1315052-.5271075-.6597861-.8528058-1.1897969-.7335393-1.9326633.4128227-3.8986356-.5407007-4.771-2.314.3389264-.5909212.6000881-1.2231542.777-1.881 2.0995585 1.0481049 4.5649617 1.0702393 6.683.06z"/><path id="Shape" d="m57.81 36.01c-47.01 4.523-40.034 3.99-44.81 3.99-1.2667854.0052514-2.3937454.8056491-2.816 2h-5.684c-2.48528137 0-4.5 2.0147186-4.5 4.5s2.01471863 4.5 4.5 4.5h5.684c.4222546 1.1943509 1.5492146 1.9947486 2.816 2 4.8 0-2.336-.547 44.81 3.99.5625049.0536866 1.121471-.1330791 1.5387191-.5141276s.6538371-.9208171.6512809-1.4858724v-16.979c.0028397-.565229-.2336261-1.1052666-.6509086-1.4865371-.4172825-.3812704-.9764124-.5681675-1.5390914-.5144629zm-4.81 2.481v16.027l-15-1.443v-13.145zm-51 8.009c0-1.3807119 1.11928813-2.5 2.5-2.5h5.5v5h-5.5c-1.38071187 0-2.5-1.1192881-2.5-2.5zm10 3.5v-7c0-.5522847.4477153-1 1-1h3v9h-3c-.5522847 0-1-.4477153-1-1zm6-8.15 18-1.728v12.761l-18-1.733zm37 12.861v-16.411l3-.288v16.988zm2.905 1.289.095-1z"/></g></svg>