<svg height="512" viewBox="0 0 60 56" width="512" xmlns="http://www.w3.org/2000/svg"><g id="056---Droplett"><path id="Shape" d="m39.668 36.51c.2170872-.8191178.3286567-1.6626101.332-2.51 0-5.134-8.238-17.208-9.177-18.568-.1964761-.2556332-.5005854-.4054536-.823-.4054536s-.6265239.1498204-.823.4054536c-.939 1.36-9.177 13.434-9.177 18.568.0033433.8473899.1149128 1.6908822.332 2.51-9.65 1.057-20.332 4.103-20.332 9.49 0 6.5 15.457 10 30 10s30-3.5 30-10c0-5.387-10.682-8.433-20.332-9.49zm-.868 2.227c5.224.963 7.2 2.491 7.2 3.263 0 1.4-5.495 4-16 4s-16-2.6-16-4c0-.772 1.976-2.3 7.2-3.263 1.7456535 3.234232 5.1247364 5.2502632 8.8 5.2502632s7.0543465-2.0160312 8.8-5.2502632zm-26.471 2.007c-.2124349.3847823-.3255162.8164845-.329 1.256 0 7.986 36 7.98 36 0-.0034838-.4395155-.1165651-.8712177-.329-1.256 2.55 1.061 3.889 2.256 3.889 3.256 0 2.506-8.2 6-21.56 6s-21.56-3.494-21.56-6c0-1 1.339-2.195 3.889-3.256zm17.671-22.958c2.816 4.243 8 12.768 8 16.214 0 4.418278-3.581722 8-8 8s-8-3.581722-8-8c0-3.446 5.184-11.971 8-16.214zm0 36.214c-16.5 0-28-4.216-28-8 0-1.473 1.925-3.17 5.593-4.624-.70711341.6940964-1.11998156 1.6337026-1.153 2.624 0 5.2 12.139 8 23.56 8s23.56-2.8 23.56-8c-.0330184-.9902974-.4458866-1.9299036-1.153-2.624 3.668 1.454 5.593 3.151 5.593 4.624 0 3.784-11.5 8-28 8z"/><path id="Shape" d="m29 39c.5522847 0 1-.4477153 1-1s-.4477153-1-1-1c-.8089353.042951-1.5979914-.2600057-2.1703236-.8332918s-.8739744-1.3628456-.8296764-2.1717082c-.0013807-.5522847-.4502153-.9988807-1.0025-.9975s-.9988807.4502153-.9975 1.0025c-.0507877 1.3410078.4596689 2.6425 1.4085844 3.5914156.9489156.9489155 2.2504078 1.4593721 3.5914156 1.4085844z"/><path id="Shape" d="m34 7c0-2.209139-1.790861-4-4-4s-4 1.790861-4 4 1.790861 4 4 4 4-1.790861 4-4zm-6 0c0-1.1045695.8954305-2 2-2s2 .8954305 2 2-.8954305 2-2 2-2-.8954305-2-2z"/><path id="Shape" d="m22 21v-20c0-.55228475-.4477153-1-1-1s-1 .44771525-1 1v20c0 .5522847.4477153 1 1 1s1-.4477153 1-1z"/><path id="Shape" d="m17 33v-27c0-.55228475-.4477153-1-1-1s-1 .44771525-1 1v27c0 .5522847.4477153 1 1 1s1-.4477153 1-1z"/><path id="Shape" d="m45 33v-27c0-.55228475-.4477153-1-1-1s-1 .44771525-1 1v27c0 .5522847.4477153 1 1 1s1-.4477153 1-1z"/><path id="Shape" d="m40 21v-20c0-.55228475-.4477153-1-1-1s-1 .44771525-1 1v20c0 .5522847.4477153 1 1 1s1-.4477153 1-1z"/></g></svg>