<svg height="512" viewBox="0 0 61 59" width="512" xmlns="http://www.w3.org/2000/svg"><g id="035---UV-Protection"><path id="Shape" d="m60 40h-58c-.55228475 0-1 .4477153-1 1s.44771525 1 1 1h58c.5522847 0 1-.4477153 1-1s-.4477153-1-1-1z"/><path id="Shape" d="m60 36h-58c-.55228475 0-1 .4477153-1 1s.44771525 1 1 1h58c.5522847 0 1-.4477153 1-1s-.4477153-1-1-1z"/><circle id="Oval" cx="7" cy="46" r="1"/><circle id="Oval" cx="13" cy="46" r="1"/><circle id="Oval" cx="4" cy="50" r="1"/><circle id="Oval" cx="10" cy="50" r="1"/><circle id="Oval" cx="7" cy="54" r="1"/><circle id="Oval" cx="13" cy="54" r="1"/><circle id="Oval" cx="4" cy="58" r="1"/><circle id="Oval" cx="10" cy="58" r="1"/><circle id="Oval" cx="16" cy="58" r="1"/><circle id="Oval" cx="16" cy="50" r="1"/><circle id="Oval" cx="55" cy="46" r="1"/><circle id="Oval" cx="49" cy="46" r="1"/><circle id="Oval" cx="58" cy="50" r="1"/><circle id="Oval" cx="52" cy="50" r="1"/><circle id="Oval" cx="55" cy="54" r="1"/><circle id="Oval" cx="49" cy="54" r="1"/><circle id="Oval" cx="58" cy="58" r="1"/><circle id="Oval" cx="52" cy="58" r="1"/><circle id="Oval" cx="46" cy="58" r="1"/><circle id="Oval" cx="19" cy="54" r="1"/><circle id="Oval" cx="25" cy="54" r="1"/><circle id="Oval" cx="31" cy="54" r="1"/><circle id="Oval" cx="43" cy="54" r="1"/><circle id="Oval" cx="37" cy="54" r="1"/><circle id="Oval" cx="22" cy="58" r="1"/><circle id="Oval" cx="28" cy="58" r="1"/><circle id="Oval" cx="40" cy="58" r="1"/><circle id="Oval" cx="34" cy="58" r="1"/><circle id="Oval" cx="46" cy="50" r="1"/><circle id="Oval" cx="19" cy="46" r="1"/><circle id="Oval" cx="25" cy="46" r="1"/><circle id="Oval" cx="31" cy="46" r="1"/><circle id="Oval" cx="43" cy="46" r="1"/><circle id="Oval" cx="37" cy="46" r="1"/><circle id="Oval" cx="22" cy="50" r="1"/><circle id="Oval" cx="28" cy="50" r="1"/><circle id="Oval" cx="40" cy="50" r="1"/><circle id="Oval" cx="34" cy="50" r="1"/><path id="Shape" d="m60.392 32.08c-12.771-5.432-46.013-5.432-58.784 0-.50810197.2164956-.74449562.803898-.528 1.312s.80389803.7444956 1.312.528c12.27-5.22 44.947-5.221 57.216 0 .3286843.1400481.707116.0941069.9927434-.120518.2856274-.214625.435057-.565327.392-.92-.0430569-.3546731-.272059-.6594339-.6007434-.799482z"/><path id="Shape" d="m60 17c.5522847 0 1-.4477153 1-1v-5c0-.5522847-.4477153-1-1-1h-5c-.5522847 0-1 .4477153-1 1s.4477153 1 1 1h2.586l-11.586 11.586-6.086-6.086 4.086-4.086v2.586c0 .5522847.4477153 1 1 1s1-.4477153 1-1v-5c0-.5522847-.4477153-1-1-1h-5c-.5522847 0-1 .4477153-1 1s.4477153 1 1 1h2.586l-4.086 4.086-5.793-5.793c-.3923789-.37897221-1.0160848-.37355237-1.4018186.0121814-.3857338.3857338-.3911536 1.0094397-.0121814 1.4018186l5.793 5.793-6.086 6.086-4.891-4.886c2.552739-6.5255301-.4991312-13.90274598-6.9159163-16.71768615-6.4167852-2.81494016-13.91155405-.0643648-16.98407591 6.23314495-3.07252186 6.2975097-.62775519 13.8975322 5.54014452 17.2225935 6.16789969 3.3250614 13.86070359 1.1901154 17.43284769-4.8380523l5.111 5.111c.3904999.3903819 1.0235001.3903819 1.414 0l6.793-6.797 6.793 6.793c.3904999.3903819 1.0235001.3903819 1.414 0l12.293-12.293v2.586c0 .5522847.4477153 1 1 1zm-46 8c-6.07513225 0-11-4.9248678-11-11 0-6.07513225 4.92486775-11 11-11 6.0751322 0 11 4.92486775 11 11-.0071635 6.0721626-4.9278374 10.9928365-11 11z"/><path id="Shape" d="m12 10c-.5522847 0-1 .4477153-1 1v4c0 1.1045695-.8954305 2-2 2s-2-.8954305-2-2v-4c0-.5522847-.44771525-1-1-1s-1 .4477153-1 1v4c0 2.209139 1.790861 4 4 4s4-1.790861 4-4v-4c0-.5522847-.4477153-1-1-1z"/><path id="Shape" d="m22.394 10.081c-.5075504-.21753953-1.0953574.0174937-1.313.525l-2.081 4.855-2.081-4.855c-.1373777-.3334726-.4436793-.5671342-.8016015-.61150016-.3579222-.04436594-.7120039.10743836-.9266436.39727706-.2146397.2898386-.2565784.6728001-.1097549 1.0022231l3 7c.1576614.367503.5191056.6057425.919.6057425s.7613386-.2382395.919-.6057425l3-7c.2175395-.5075504-.0174937-1.0953574-.525-1.313z"/></g></svg>